<svg id="Layer_1" data-name="Layer 1" xmlns="http://www.w3.org/2000/svg" viewBox="0 0 512 512"><defs><style>.cls-1{fill:#727272;}</style></defs><title>thumb-up-handdrawn</title><path class="cls-1" d="M488.67,186.57a40.19,40.19,0,0,0-15.08-3.72c-5-.18-8.64,0-13-.09H343.25l.22-1.6,1.3-10.51q1.16-10.52,1.78-21.1a279.21,279.21,0,0,0-.51-42.68C344.58,92.6,342,78,334.76,64c-3.64-6.87-8.82-13.6-16-18.32a43.37,43.37,0,0,0-24.07-6.89A47.07,47.07,0,0,0,272.13,46a46.13,46.13,0,0,0-16,17c-7.74,13.41-8.15,29.25-8.32,42-.56,25.59-4.45,51.19-13.83,74.35-8.86,21.09-21.58,38.14-37.12,49.66s-33.29,17.55-50.25,20.8c-2.1.42-3.7.81-5.06,1.18,0-.2,0-.37-.06-.57a30.48,30.48,0,0,0-14.68-21,29.81,29.81,0,0,0-12.55-4c-4.49-.29-7.79-.17-11.74-.27L57,224.59l-22.82-.23A31.52,31.52,0,0,0,9.74,234.87a31,31,0,0,0-6.69,12c-1.39,4.37-1.34,9.45-1.26,12.91q.16,11.46.33,23c.07,3.4-.08,7.23-.24,10.6C.11,331,0,369.55,0,408.21l0,29V439l.11,2.29a32.17,32.17,0,0,0,3.72,13.22A33.61,33.61,0,0,0,33.8,472.44l14.41.15,28.67.57,5.38,0c19.13-.3,32.33-2.83,29.09-5.57-6.17-5.23-32.34-9-68.35-9.75l-9.36-.14A19.9,19.9,0,0,1,27,456.44a18.81,18.81,0,0,1-9.93-8.54,20.89,20.89,0,0,1-1.85-5,27.52,27.52,0,0,1-.41-6V270l0-14.87a18.21,18.21,0,0,1,3.41-10,18.48,18.48,0,0,1,8.34-6.49,17.92,17.92,0,0,1,5.19-1.19c1.44-.14,4.63-.06,7-.08v0h70.77a31.69,31.69,0,0,1,4.82.21,16.48,16.48,0,0,1,4,1,17.78,17.78,0,0,1,6.85,4.59,19,19,0,0,1,4.19,7.1c.86,2.79.88,4.93.84,9.37v23.59l0,47.19q-.11,40.44-.22,80.89,0,9.29.16,17.87l.27,8.43a23.42,23.42,0,0,1-.27,6.21,21.9,21.9,0,0,1-14.44,16.47c-2.72.93-4.19,1.46-3.9,2.18.26.57,2.4,1.4,6.42.65a25.23,25.23,0,0,0,15.89-10.65,25.6,25.6,0,0,0,3.91-9.48,40.2,40.2,0,0,0,.57-6.27,2.43,2.43,0,0,0,.4.27c3.24,1.64,9.39,3.2,17.81,5.59,4.19,1.21,9,2.56,14.08,4.46s10.57,4.1,15.46,7.82l2.15,1.17a15.35,15.35,0,0,0,2.29.88l17.77.91,18.86.73c13.16.43,27.47.73,42.67.88l73.56.24h62a40.4,40.4,0,0,0,39-52.59A38.48,38.48,0,0,0,437.4,394c.8-.11,1.59-.25,2.39-.37a40.33,40.33,0,0,0,26.21-62c-.72-1.08-1.53-2.09-2.35-3.09l2.3-.35a40,40,0,0,0,21.26-67.93,40.49,40.49,0,0,0,21.39-21l0,0a40.43,40.43,0,0,0-20-52.79Zm-2.35,59.58a27.15,27.15,0,0,1-12.39,4.17c-.75.06-1.69.07-2.61.08a41.3,41.3,0,0,0-12.79-2.19v15.34H469a26.77,26.77,0,0,1,16.48,20.64c2.47,12.79-5.7,26.55-18.24,30.65a27.08,27.08,0,0,1-8.61,1.38l-10.32-.2-2.69-.06a41.34,41.34,0,0,0-13.23-2.33V329h9.55a27.12,27.12,0,0,1,12.42,10.25,26.6,26.6,0,0,1,2.13,24.71,26.23,26.23,0,0,1-19.18,15.38,35,35,0,0,1-6.75.43l-8.11,0-9.26,0a37,37,0,0,0-7-.62v15.33h5.1a25.56,25.56,0,0,1,.51,50,25.35,25.35,0,0,1-3.69.54l-1.87.1H394.3l-38.25,0c-51,0-101.82-.12-152-.82l-10.5,0c-.95,0-.36,0-.54,0l0,0h0c-8.68-5.3-17.38-7.14-24.53-8.42a107.07,107.07,0,0,0-18.29-1.49c-6.06.07-10,.57-11.41,1.28,0-1,0-2,.09-2.95.56-24.67,1.12-49.61,1.68-74.55q.47-26.7.95-53.44l.38-26.76.14-13.39c-.07-3.68.21-7.21-.13-11.32,2.17,0,5.21-.21,9.21-.6,6.41-.25,12.53-2.36,18.9-3.65,3.23-.55,6.2-1.91,9.27-3.06s6.16-2.31,9.21-3.6c11.67-6.14,23.12-13.69,32.11-24.07,2.26-2.05,3.84-4.68,5.74-7,1.76-2.47,3.85-4.73,5.33-7.39,3.09-5.24,6.4-10.38,8.75-16,5.36-11,8.9-22.77,11.71-34.67s4.27-24.13,5.25-36.34c.47-6.11.61-12.26.77-18.36l.55-8.88c.55-2.89.8-5.86,1.58-8.67,1.9-8.12,5.74-15.72,11.61-21.29a36.49,36.49,0,0,1,21.54-9.93,38.4,38.4,0,0,1,11.71,1.43,30.42,30.42,0,0,1,10.25,5.7c6.11,5.06,10.29,12.39,13.09,20.21,5.62,15.77,7,33.13,7.18,50.24a372.38,372.38,0,0,1-3.64,51.57l-1.09,7.28-1.46,8.43,131.32.84c5.13.13,11-.17,15.05.46A26.82,26.82,0,0,1,488,201a27.47,27.47,0,0,1-1.63,45.19ZM72.59,399.8A13.08,13.08,0,1,1,59.5,412.88,13.08,13.08,0,0,1,72.59,399.8Z"/></svg>