<svg xmlns="http://www.w3.org/2000/svg" viewBox="0 0 24 24" id="unlike"><path d="M6.819 13.501h-6a.5.5 0 0 1-.5-.5v-10a.5.5 0 0 1 .5-.5h6a.5.5 0 0 1 .5.5v10a.5.5 0 0 1-.5.5z"></path><path d="M7.319 3.501a.5.5 0 0 0-.5.5c0 .094.033.177.078.252a.921.921 0 0 1-.078.123c-.25.334-.292.667-.25.917s-.069.667-.014.917-.13.541-.016.75c.114.208.363.5.28.708-.017.043-.026.054-.031.058.011.017.031.111.031.525 0 .834.083.875 0 1.25s.083.292 0 .667 0 .958 0 .958-.083.042 0 .292c.059.176-.022.41.096.521-.003.021-.013.041-.013.063 0 .246.182.442.417.483V3.501zM23.598 12.501H18.32a.5.5 0 0 1 0-1h5.103c.088-.208.156-.432.181-.678a2.493 2.493 0 0 0-.239-1.322h-5.044a.5.5 0 0 1 0-1h4.688a3.013 3.013 0 0 0-.135-1.594 2.508 2.508 0 0 0-.199-.406h-4.354a.5.5 0 0 1 0-1h3.554a2.996 2.996 0 0 0-.597-1.793c-.59-.777-1.521-1.207-2.624-1.207h-8.188c-.556 0-1.045.188-1.415.546a1.63 1.63 0 0 1-.731.399v9.279c.227.111.432.259.582.439.094.112.199.215.312.304 1.503 1.185 2.471 2.438 2.959 3.834.073.207.147.42.147.595v2.381c0 .092.025.182.073.26a1.981 1.981 0 0 0 2.497.793c1.23-.533 2.2-2.342 1.395-5.83h4.768c.787 0 2.628 0 2.628-2.248a3.244 3.244 0 0 0-.083-.752z"></path></svg>