<svg xmlns="http://www.w3.org/2000/svg" viewBox="0 0 24 24" id="unlike"><path d="M21.32 6.502h-3a.5.5 0 0 1 0-1h3a.5.5 0 0 1 0 1zM22.32 9.502h-4a.5.5 0 0 1 0-1h4a.5.5 0 0 1 0 1zM22.32 12.502h-4a.5.5 0 0 1 0-1h4a.5.5 0 0 1 0 1z"></path><path d="M14.087 21.5a1.976 1.976 0 0 1-1.692-.961.496.496 0 0 1-.073-.26V17.9c0-.176-.075-.39-.147-.596-.486-1.396-1.456-2.65-2.959-3.834a2.146 2.146 0 0 1-.312-.306c-.336-.403-.924-.665-1.5-.665a.5.5 0 1 1 0-1c.874 0 1.743.396 2.268 1.027.05.059.103.106.16.154 1.659 1.307 2.733 2.709 3.286 4.289.09.26.203.579.203.928v2.225a.965.965 0 0 0 1.172.289c.876-.379 1.576-1.988.666-5.277a.5.5 0 0 1 .48-.635h5.411c1.265 0 1.628-.279 1.628-1.248 0-.752-.135-.752-.359-.752a.499.499 0 0 1-.192-.961c.258-.106.442-.42.479-.813.039-.403-.084-.989-.564-1.312a.5.5 0 0 1-.156-.664c.188-.323.266-.938.055-1.489-.104-.274-.325-.637-.778-.787a.5.5 0 0 1-.323-.608c.11-.394.042-1.024-.357-1.555-.28-.37-.824-.813-1.828-.813h-8.188c-.3 0-.535.087-.721.265a2.605 2.605 0 0 1-1.824.738H7.32a.5.5 0 0 1 0-1h.604c.423 0 .822-.161 1.126-.454.37-.356.859-.546 1.415-.546h8.188c1.104 0 2.035.429 2.625 1.206.438.579.654 1.325.601 1.999.449.259.796.673.997 1.2.236.62.25 1.354.053 1.949.494.492.748 1.213.676 1.968a2.188 2.188 0 0 1-.347 1.015c.423.421.423 1.121.423 1.416 0 2.248-1.842 2.248-2.628 2.248h-4.768c.806 3.488-.162 5.297-1.396 5.83a2.006 2.006 0 0 1-.802.169z"></path><path d="M6.82 13.502h-6a.5.5 0 0 1-.5-.5v-10a.5.5 0 0 1 .5-.5h6c.275 0 .5.225.5.5v10a.5.5 0 0 1-.5.5zm-5.5-1h5v-9h-5v9z"></path></svg>